<svg width="477" height="196" viewBox="0 0 477 196" fill="none" xmlns="http://www.w3.org/2000/svg">
<g clip-path="url(#clip0_4_565)">
<path d="M21.9171 161.074C30.537 161.074 37.5249 154.075 37.5249 145.441C37.5249 136.806 30.537 129.807 21.9171 129.807C13.2971 129.807 6.3092 136.806 6.3092 145.441C6.3092 154.075 13.2971 161.074 21.9171 161.074Z" fill="white"/>
<path fill-rule="evenodd" clip-rule="evenodd" d="M15.1493 167.522C15.1493 164.234 12.4899 161.552 9.1886 161.552C5.90563 161.552 3.22791 164.234 3.22791 167.522C3.22791 170.81 5.88729 173.493 9.1886 173.493C12.4899 173.493 15.1493 170.81 15.1493 167.522Z" fill="white"/>
<path fill-rule="evenodd" clip-rule="evenodd" d="M190.064 15.0823C191.458 9.3874 187.973 3.63739 182.287 2.24121C176.602 0.845044 170.861 4.33547 169.467 10.0304C168.073 15.7253 171.558 21.4753 177.244 22.8715C182.929 24.2493 188.67 20.7772 190.064 15.0823Z" fill="white"/>
<path fill-rule="evenodd" clip-rule="evenodd" d="M163.36 24.1207C167.23 16.4969 164.185 7.16456 156.555 3.30672C148.944 -0.569493 139.627 2.48004 135.776 10.1039C131.906 17.7277 134.95 27.06 142.58 30.9362C150.191 34.794 159.49 31.7445 163.36 24.1207Z" fill="white"/>
<path fill-rule="evenodd" clip-rule="evenodd" d="M487.42 30.9362C495.031 27.06 498.076 17.7461 494.224 10.1039C490.355 2.48004 481.056 -0.569489 473.445 3.28835C465.833 7.16456 462.789 16.4785 466.64 24.1023C470.492 31.7445 479.809 34.7941 487.42 30.9362Z" fill="white"/>
<path fill-rule="evenodd" clip-rule="evenodd" d="M452.756 22.8531C458.442 21.4569 461.927 15.7069 460.533 10.012C459.139 4.31711 453.398 0.826687 447.713 2.22286C442.027 3.61903 438.542 9.36905 439.936 15.064C441.33 20.7772 447.071 24.2493 452.756 22.8531Z" fill="white"/>
<path fill-rule="evenodd" clip-rule="evenodd" d="M44.366 170.241C44.366 170.627 44.3844 171.013 44.4029 171.38L44.366 170.241Z" fill="white"/>
<path fill-rule="evenodd" clip-rule="evenodd" d="M604.121 237H615.383C624.314 229.725 630 218.629 630 206.192C630 184.423 612.521 166.751 590.861 166.475C589.944 158.484 584.9 151.76 577.931 148.453C585.818 143.089 591.008 134.051 591.008 123.782C591.008 107.34 577.693 94.0027 561.278 94.0027C552.584 94.0027 544.753 97.732 539.324 103.702C537.618 101.902 535.729 100.267 533.693 98.8158C533.62 91.8166 530.631 85.5155 525.862 81.0881C532.19 76.6608 536.335 69.3125 536.335 60.9906C536.335 47.4698 525.385 36.5025 511.886 36.5025C507.301 36.5025 503.01 37.7701 499.341 39.9746C493.362 36.6679 486.485 34.7757 479.167 34.7757C467.906 34.7757 457.708 39.2397 450.207 46.4962C446.337 41.0401 440.303 37.2557 433.352 36.3739C432.288 16.0927 415.543 0 395.075 0C387.555 0 380.549 2.16774 374.625 5.91536C370.352 3.47206 365.4 2.05751 360.118 2.05751C347.408 2.05751 336.605 10.159 332.552 21.4937C328.407 16.3866 322.098 13.1167 315.018 13.1167C307.939 13.1167 301.611 16.3866 297.485 21.4937C293.431 10.159 282.629 2.05751 269.919 2.05751C264.637 2.05751 259.685 3.45369 255.411 5.91536C249.451 2.16774 242.445 0 234.925 0C214.438 0 197.712 16.0927 196.648 36.3556C189.697 37.2373 183.663 41.0217 179.793 46.4778C172.292 39.2214 162.076 34.7573 150.833 34.7573C143.515 34.7573 136.638 36.6495 130.659 39.9562C126.99 37.7517 122.699 36.4841 118.114 36.4841C104.615 36.4841 93.6655 47.4514 93.6655 60.9722C93.6655 69.2942 97.8105 76.6424 104.138 81.0698C99.3694 85.4971 96.3799 91.7982 96.3065 98.7975C94.2707 100.249 92.3817 101.884 90.676 103.684C85.2472 97.732 77.4157 93.9843 68.7223 93.9843C52.3074 93.9843 38.9921 107.321 38.9921 123.763C38.9921 134.032 44.1825 143.089 52.069 148.435C45.0996 151.723 40.0559 158.465 39.1389 166.457C17.4786 166.751 0 184.423 0 206.192C0 218.629 5.70393 229.725 14.6175 237H25.8786" fill="white"/>
<path fill-rule="evenodd" clip-rule="evenodd" d="M428.07 36.2453C424.163 19.1974 408.922 6.48486 390.71 6.48486C386.418 6.48486 382.273 7.20132 378.422 8.50563C378.367 8.45052 378.312 8.41378 378.257 8.37704C383.227 5.5847 388.968 3.98645 395.075 3.98645C413.306 3.98645 428.217 18.2053 429.354 36.1719C428.914 36.1902 428.492 36.2086 428.07 36.2453Z" fill="#E9BE57"/>
<path fill-rule="evenodd" clip-rule="evenodd" d="M74.1144 98.9628C57.6995 98.9628 44.3843 112.3 44.3843 128.742C44.3843 131.203 44.6777 133.61 45.2463 135.906C43.3755 132.269 42.3118 128.135 42.3118 123.763C42.3118 109.14 54.1415 97.2911 68.7406 97.2911C72.3537 97.2911 75.8017 98.0259 78.938 99.3302C77.3607 99.0914 75.7467 98.9628 74.1144 98.9628Z" fill="#E9BE57"/>
<path fill-rule="evenodd" clip-rule="evenodd" d="M115.858 38.9274C106.21 42.2158 99.2777 51.346 99.2777 62.1296C99.2777 69.386 102.432 75.8892 107.421 80.39C100.598 76.6057 95.9948 69.3493 95.9948 60.9906C95.9948 49.5089 104.707 40.0664 115.858 38.9274Z" fill="#E9BE57"/>
<path fill-rule="evenodd" clip-rule="evenodd" d="M200.646 36.1719C201.783 18.2053 216.694 3.98645 234.925 3.98645C241.032 3.98645 246.773 5.5847 251.743 8.37704C251.688 8.41378 251.633 8.46889 251.578 8.50563C247.727 7.20132 243.582 6.48486 239.29 6.48486C221.078 6.48486 205.855 19.1974 201.93 36.2453C201.508 36.2086 201.068 36.1902 200.646 36.1719Z" fill="#E9BE57"/>
<path fill-rule="evenodd" clip-rule="evenodd" d="M514.894 87.922C515.059 86.3789 515.151 84.799 515.151 83.2008C515.151 60.1272 496.48 41.4259 473.444 41.4259C469.703 41.4259 466.053 41.9219 462.605 42.8588C467.594 40.3971 473.224 39.0009 479.167 39.0009C499.873 39.0009 516.655 55.8101 516.655 76.5506C516.655 80.5003 516.031 84.3214 514.894 87.922Z" fill="#E9BE57"/>
<path fill-rule="evenodd" clip-rule="evenodd" d="M430.271 81.9699C420.404 81.9699 412.114 75.2463 409.693 66.1344C413.874 73.6296 421.871 78.6999 431.059 78.6999C438.121 78.6999 444.485 75.7055 448.96 70.8924C445.31 77.5058 438.304 81.9699 430.271 81.9699Z" fill="#E9BE57"/>
<path fill-rule="evenodd" clip-rule="evenodd" d="M380.586 15.266C375.579 11.2612 369.233 8.87302 362.337 8.87302C348.802 8.87302 337.431 18.0584 334.056 30.5504C334.496 16.5336 345.996 5.29074 360.1 5.29074C368.408 5.29074 375.817 9.18532 380.586 15.266Z" fill="#E9BE57"/>
<path fill-rule="evenodd" clip-rule="evenodd" d="M366.647 82.7231C354.983 82.7231 345.519 73.2439 345.519 61.5601C345.519 60.6049 345.574 59.6496 345.702 58.7127C347.646 70.2862 357.697 79.1041 369.802 79.1041C374.46 79.1041 378.807 77.7998 382.512 75.5402C378.642 79.9492 372.975 82.7231 366.647 82.7231Z" fill="#E9BE57"/>
<path fill-rule="evenodd" clip-rule="evenodd" d="M133.465 116.984C129.888 119.538 125.505 121.026 120.773 121.026C108.65 121.026 98.8192 111.179 98.8192 99.0363C98.8192 96.7032 99.186 94.4436 99.8463 92.3494C99.7913 92.9923 99.7729 93.6537 99.7729 94.315C99.7729 107.836 110.722 118.803 124.221 118.803C127.486 118.803 130.603 118.142 133.465 116.984Z" fill="#E9BE57"/>
<path fill-rule="evenodd" clip-rule="evenodd" d="M114.831 83.2007C114.831 84.799 114.922 86.3789 115.087 87.922C113.95 84.3397 113.327 80.5003 113.327 76.5322C113.327 55.7917 130.108 38.9825 150.815 38.9825C156.757 38.9825 162.388 40.3603 167.376 42.8404C163.928 41.9035 160.279 41.4075 156.537 41.4075C133.501 41.4075 114.831 60.1272 114.831 83.2007Z" fill="#E9BE57"/>
<path fill-rule="evenodd" clip-rule="evenodd" d="M331.396 25.6271C327.288 21.2732 321.456 18.5544 315 18.5544C308.544 18.5544 302.712 21.2732 298.603 25.6271C298.567 25.4618 298.548 25.3148 298.512 25.1495C301.996 19.7117 308.086 16.1111 315 16.1111C321.933 16.1111 328.003 19.7117 331.488 25.1495C331.451 25.3148 331.433 25.4618 331.396 25.6271Z" fill="#E9BE57"/>
<path fill-rule="evenodd" clip-rule="evenodd" d="M267.663 8.87302C260.767 8.87302 254.421 11.2612 249.414 15.266C254.182 9.20369 261.592 5.30911 269.9 5.30911C284.004 5.30911 295.486 16.5336 295.944 30.5688C292.569 18.0584 281.18 8.87302 267.663 8.87302Z" fill="#E9BE57"/>
<path fill-rule="evenodd" clip-rule="evenodd" d="M220.307 66.1528C217.886 75.2646 209.596 81.9883 199.729 81.9883C191.678 81.9883 184.672 77.5242 181.058 70.9108C185.515 75.7055 191.898 78.7183 198.959 78.7183C208.129 78.7183 216.126 73.648 220.307 66.1528Z" fill="#E9BE57"/>
<path fill-rule="evenodd" clip-rule="evenodd" d="M263.353 82.7231C257.025 82.7231 251.358 79.9492 247.488 75.5402C251.193 77.7998 255.54 79.1041 260.198 79.1041C272.303 79.1041 282.354 70.2862 284.298 58.7127C284.426 59.6496 284.481 60.5865 284.481 61.5601C284.481 73.2439 275.017 82.7231 263.353 82.7231Z" fill="#E9BE57"/>
<path fill-rule="evenodd" clip-rule="evenodd" d="M492.776 14.421C488.906 6.79714 479.607 3.74761 471.977 7.60545C471.354 7.91775 470.748 8.28516 470.18 8.67095C471.317 7.29315 472.729 6.11742 474.417 5.27237C480.946 1.96565 488.924 4.57429 492.244 11.1142C493.142 12.8778 493.601 14.7516 493.674 16.6071C493.436 15.8539 493.142 15.1374 492.776 14.421Z" fill="#E9BE57"/>
<path fill-rule="evenodd" clip-rule="evenodd" d="M458.882 12.6758C457.488 6.98085 451.748 3.49043 446.062 4.8866C445.585 4.99682 445.145 5.14379 444.705 5.32749C445.677 4.59267 446.796 4.02318 448.061 3.71088C452.94 2.51678 457.855 5.5112 459.047 10.3794C459.377 11.7021 459.396 13.0064 459.139 14.2556C459.102 13.7413 459.011 13.2085 458.882 12.6758Z" fill="#E9BE57"/>
<path fill-rule="evenodd" clip-rule="evenodd" d="M183.92 4.8866C178.234 3.49043 172.512 6.98086 171.118 12.6758C170.99 13.2085 170.898 13.7413 170.861 14.274C170.623 13.0248 170.641 11.7021 170.953 10.3978C172.145 5.51121 177.06 2.53516 181.939 3.72925C183.204 4.04155 184.323 4.59267 185.295 5.34587C184.855 5.14379 184.397 5.0152 183.92 4.8866Z" fill="#E9BE57"/>
<path fill-rule="evenodd" clip-rule="evenodd" d="M158.004 7.60545C150.393 3.72924 141.076 6.77877 137.225 14.421C136.858 15.1374 136.564 15.8722 136.326 16.6071C136.399 14.7516 136.858 12.8778 137.756 11.1142C141.076 4.57429 149.054 1.96565 155.583 5.27237C157.271 6.13579 158.701 7.29315 159.82 8.67095C159.233 8.28516 158.628 7.91775 158.004 7.60545Z" fill="#E9BE57"/>
<path fill-rule="evenodd" clip-rule="evenodd" d="M25.1817 133.022C16.5616 133.022 9.57383 140.021 9.57383 148.655C9.57383 149.464 9.62885 150.254 9.75723 151.025C8.96859 149.317 8.54675 147.425 8.54675 145.441C8.54675 138.037 14.5258 132.048 21.9171 132.048C23.8245 132.048 25.6402 132.453 27.2909 133.169C26.5939 133.077 25.897 133.022 25.1817 133.022Z" fill="#E9BE57"/>
<path fill-rule="evenodd" clip-rule="evenodd" d="M4.45681 166.273C4.45681 169.561 7.13454 172.243 10.4175 172.243C10.7293 172.243 11.0227 172.225 11.3162 172.17C10.6743 172.464 9.94065 172.629 9.18868 172.629C6.36423 172.629 4.07166 170.333 4.07166 167.504C4.07166 166.769 4.21838 166.071 4.49349 165.446C4.47515 165.74 4.45681 165.997 4.45681 166.273Z" fill="#E9BE57"/>
<g clip-path="url(#clip1_4_565)">
<path d="M36.6297 188.234C44.3293 188.234 50.5711 181.991 50.5711 174.289C50.5711 166.587 44.3293 160.344 36.6297 160.344C28.93 160.344 22.6882 166.587 22.6882 174.289C22.6882 181.991 28.93 188.234 36.6297 188.234Z" fill="url(#paint0_linear_4_565)"/>
<path fill-rule="evenodd" clip-rule="evenodd" d="M30.5845 193.986C30.5845 191.053 28.209 188.66 25.2602 188.66C22.3277 188.66 19.9359 191.053 19.9359 193.986C19.9359 196.919 22.3114 199.311 25.2602 199.311C28.209 199.311 30.5845 196.919 30.5845 193.986Z" fill="url(#paint1_linear_4_565)"/>
<path fill-rule="evenodd" clip-rule="evenodd" d="M186.824 58.0094C188.069 52.9296 184.956 47.8006 179.878 46.5552C174.799 45.3098 169.671 48.4232 168.426 53.5031C167.181 58.583 170.294 63.712 175.372 64.9574C180.451 66.1864 185.579 63.0893 186.824 58.0094Z" fill="url(#paint2_linear_4_565)"/>
<path fill-rule="evenodd" clip-rule="evenodd" d="M162.971 66.0716C166.428 59.2712 163.708 50.9468 156.893 47.5056C150.094 44.048 141.772 46.7682 138.332 53.5686C134.875 60.3691 137.595 68.6935 144.41 72.1511C151.208 75.5923 159.514 72.8721 162.971 66.0716Z" fill="url(#paint3_linear_4_565)"/>
<path fill-rule="evenodd" clip-rule="evenodd" d="M452.432 72.1511C459.231 68.6935 461.951 60.3855 458.51 53.5686C455.054 46.7682 446.748 44.048 439.949 47.4892C433.15 50.9468 430.431 59.2548 433.871 66.0553C437.311 72.8721 445.634 75.5923 452.432 72.1511Z" fill="url(#paint4_linear_4_565)"/>
<path fill-rule="evenodd" clip-rule="evenodd" d="M421.469 64.941C426.548 63.6956 429.661 58.5666 428.416 53.4867C427.171 48.4069 422.043 45.2934 416.964 46.5388C411.886 47.7842 408.773 52.9132 410.018 57.993C411.263 63.0893 416.391 66.1864 421.469 64.941Z" fill="url(#paint5_linear_4_565)"/>
<path fill-rule="evenodd" clip-rule="evenodd" d="M556.674 255.96H566.733C574.711 249.471 579.789 239.573 579.789 228.48C579.789 209.061 564.177 193.298 544.829 193.052C544.01 185.924 539.505 179.926 533.28 176.976C540.324 172.192 544.96 164.129 544.96 154.969C544.96 140.303 533.067 128.406 518.404 128.406C510.639 128.406 503.644 131.733 498.795 137.059C497.271 135.453 495.584 133.994 493.765 132.7C493.7 126.456 491.029 120.836 486.77 116.887C492.422 112.937 496.124 106.383 496.124 98.9596C496.124 86.8991 486.344 77.1162 474.287 77.1162C470.191 77.1162 466.357 78.2469 463.081 80.2133C457.74 77.2637 451.597 75.5759 445.06 75.5759C435.001 75.5759 425.893 79.5579 419.192 86.0306C415.736 81.1637 410.346 77.7881 404.137 77.0015C403.187 58.9107 388.23 44.556 369.947 44.556C363.23 44.556 356.972 46.4896 351.68 49.8325C347.863 47.6531 343.44 46.3913 338.722 46.3913C327.369 46.3913 317.72 53.6178 314.099 63.7284C310.397 59.1729 304.761 56.2561 298.437 56.2561C292.114 56.2561 286.462 59.1729 282.776 63.7284C279.155 53.6178 269.506 46.3913 258.153 46.3913C253.435 46.3913 249.012 47.6367 245.194 49.8325C239.87 46.4896 233.612 44.556 226.895 44.556C208.596 44.556 193.655 58.9107 192.705 76.9852C186.496 77.7717 181.106 81.1474 177.65 86.0142C170.949 79.5415 161.824 75.5595 151.782 75.5595C145.245 75.5595 139.102 77.2473 133.761 80.1969C130.485 78.2305 126.651 77.0999 122.556 77.0999C110.498 77.0999 100.718 86.8827 100.718 98.9432C100.718 106.366 104.42 112.921 110.072 116.87C105.813 120.819 103.142 126.44 103.077 132.683C101.258 133.978 99.571 135.436 98.0474 137.042C93.1982 131.733 86.2029 128.39 78.4376 128.39C63.7753 128.39 51.8817 140.287 51.8817 154.953C51.8817 164.113 56.5179 172.192 63.5624 176.96C57.337 179.893 52.8319 185.907 52.0127 193.035C32.6651 193.298 17.0526 209.061 17.0526 228.48C17.0526 239.573 22.1476 249.471 30.1094 255.96H40.1682" fill="url(#paint6_linear_4_565)"/>
<path fill-rule="evenodd" clip-rule="evenodd" d="M491.111 99.9756C491.111 90.3731 484.919 82.2125 476.302 79.2793C486.279 80.2953 494.044 88.7016 494.044 98.9433C494.044 106.399 489.915 112.888 483.838 116.248C488.294 112.249 491.111 106.448 491.111 99.9756Z" fill="white"/>
<path fill-rule="evenodd" clip-rule="evenodd" d="M399.419 76.8868C395.929 61.68 382.316 50.3405 366.048 50.3405C362.214 50.3405 358.512 50.9796 355.072 52.143C355.022 52.0939 354.973 52.0611 354.924 52.0283C359.364 49.5375 364.491 48.1119 369.947 48.1119C386.231 48.1119 399.55 60.7952 400.566 76.8213C400.172 76.8377 399.796 76.8541 399.419 76.8868Z" fill="white"/>
<path fill-rule="evenodd" clip-rule="evenodd" d="M83.2541 132.831C68.5918 132.831 56.6981 144.728 56.6981 159.394C56.6981 161.589 56.9603 163.736 57.4681 165.784C55.7971 162.54 54.8469 158.853 54.8469 154.953C54.8469 141.909 65.4136 131.34 78.454 131.34C81.6814 131.34 84.7613 131.995 87.5627 133.159C86.1538 132.946 84.7121 132.831 83.2541 132.831Z" fill="white"/>
<path fill-rule="evenodd" clip-rule="evenodd" d="M120.541 79.2793C111.923 82.2125 105.731 90.3567 105.731 99.9756C105.731 106.448 108.549 112.249 113.005 116.264C106.91 112.888 102.798 106.416 102.798 98.9596C102.798 88.718 110.58 80.2953 120.541 79.2793Z" fill="white"/>
<path fill-rule="evenodd" clip-rule="evenodd" d="M196.276 76.8213C197.292 60.7952 210.611 48.1119 226.895 48.1119C232.351 48.1119 237.478 49.5375 241.918 52.0283C241.869 52.0611 241.82 52.1102 241.771 52.143C238.33 50.9796 234.628 50.3405 230.794 50.3405C214.527 50.3405 200.929 61.68 197.423 76.8868C197.046 76.8541 196.653 76.8377 196.276 76.8213Z" fill="white"/>
<path fill-rule="evenodd" clip-rule="evenodd" d="M471.911 152.511C467.684 152.511 463.769 151.167 460.574 148.906C463.114 149.955 465.915 150.528 468.831 150.528C480.889 150.528 490.669 140.746 490.669 128.685C490.669 128.095 490.653 127.522 490.603 126.932C491.21 128.816 491.521 130.815 491.521 132.896C491.537 143.728 482.756 152.511 471.911 152.511Z" fill="white"/>
<path fill-rule="evenodd" clip-rule="evenodd" d="M476.973 122.982C477.121 121.606 477.203 120.197 477.203 118.771C477.203 98.1895 460.525 81.5079 439.949 81.5079C436.607 81.5079 433.347 81.9503 430.267 82.786C434.723 80.5902 439.752 79.3448 445.06 79.3448C463.556 79.3448 478.546 94.3386 478.546 112.839C478.546 116.362 477.989 119.771 476.973 122.982Z" fill="white"/>
<path fill-rule="evenodd" clip-rule="evenodd" d="M401.385 117.673C392.571 117.673 385.166 111.676 383.004 103.548C386.739 110.234 393.882 114.756 402.089 114.756C408.396 114.756 414.081 112.085 418.078 107.792C414.818 113.691 408.56 117.673 401.385 117.673Z" fill="white"/>
<path fill-rule="evenodd" clip-rule="evenodd" d="M357.005 58.1733C352.532 54.601 346.864 52.4708 340.704 52.4708C328.614 52.4708 318.457 60.6641 315.442 71.807C315.836 59.304 326.107 49.2754 338.705 49.2754C346.127 49.2754 352.745 52.7493 357.005 58.1733Z" fill="white"/>
<path fill-rule="evenodd" clip-rule="evenodd" d="M344.554 118.345C334.135 118.345 325.681 109.89 325.681 99.4676C325.681 98.6155 325.731 97.7634 325.845 96.9277C327.582 107.251 336.559 115.117 347.372 115.117C351.533 115.117 355.416 113.953 358.725 111.938C355.268 115.871 350.206 118.345 344.554 118.345Z" fill="white"/>
<path fill-rule="evenodd" clip-rule="evenodd" d="M136.268 148.906C133.073 151.184 129.158 152.511 124.931 152.511C114.102 152.511 105.321 143.728 105.321 132.896C105.321 130.815 105.649 128.8 106.239 126.932C106.189 127.505 106.173 128.095 106.173 128.685C106.173 140.746 115.953 150.528 128.011 150.528C130.927 150.528 133.712 149.938 136.268 148.906Z" fill="white"/>
<path fill-rule="evenodd" clip-rule="evenodd" d="M119.623 118.771C119.623 120.197 119.705 121.606 119.852 122.982C118.837 119.787 118.28 116.362 118.28 112.823C118.28 94.3222 133.27 79.3284 151.765 79.3284C157.073 79.3284 162.103 80.5574 166.559 82.7696C163.479 81.9339 160.219 81.4915 156.877 81.4915C136.3 81.4915 119.623 98.1894 119.623 118.771Z" fill="white"/>
<path fill-rule="evenodd" clip-rule="evenodd" d="M313.067 67.4154C309.397 63.5317 304.188 61.1065 298.421 61.1065C292.654 61.1065 287.445 63.5317 283.775 67.4154C283.742 67.2679 283.726 67.1368 283.693 66.9893C286.806 62.1389 292.245 58.9271 298.421 58.9271C304.614 58.9271 310.036 62.1389 313.149 66.9893C313.116 67.1368 313.1 67.2679 313.067 67.4154Z" fill="white"/>
<path fill-rule="evenodd" clip-rule="evenodd" d="M256.138 52.4708C249.978 52.4708 244.31 54.601 239.837 58.1733C244.097 52.7657 250.715 49.2917 258.137 49.2917C270.735 49.2917 280.99 59.304 281.4 71.8234C278.385 60.6641 268.212 52.4708 256.138 52.4708Z" fill="white"/>
<path fill-rule="evenodd" clip-rule="evenodd" d="M213.838 103.564C211.676 111.692 204.271 117.69 195.457 117.69C188.265 117.69 182.007 113.708 178.78 107.808C182.761 112.085 188.462 114.773 194.769 114.773C202.961 114.773 210.103 110.25 213.838 103.564Z" fill="white"/>
<path fill-rule="evenodd" clip-rule="evenodd" d="M252.288 118.345C246.636 118.345 241.574 115.871 238.117 111.938C241.427 113.953 245.309 115.117 249.47 115.117C260.283 115.117 269.26 107.251 270.997 96.9277C271.112 97.7634 271.161 98.5991 271.161 99.4676C271.161 109.89 262.707 118.345 252.288 118.345Z" fill="white"/>
<path fill-rule="evenodd" clip-rule="evenodd" d="M457.216 57.4195C453.759 50.6191 445.454 47.8989 438.638 51.3401C438.081 51.6186 437.541 51.9464 437.033 52.2905C438.049 51.0615 439.31 50.0127 440.817 49.259C446.649 46.3094 453.776 48.6363 456.741 54.4699C457.544 56.043 457.953 57.7145 458.019 59.3695C457.806 58.6977 457.544 58.0586 457.216 57.4195Z" fill="white"/>
<path fill-rule="evenodd" clip-rule="evenodd" d="M426.941 55.8628C425.696 50.7829 420.568 47.6695 415.49 48.9148C415.064 49.0132 414.671 49.1443 414.278 49.3081C415.146 48.6527 416.145 48.1447 417.276 47.8661C421.633 46.801 426.024 49.472 427.089 53.8144C427.384 54.9943 427.4 56.1577 427.171 57.272C427.138 56.8132 427.056 56.338 426.941 55.8628Z" fill="white"/>
<path fill-rule="evenodd" clip-rule="evenodd" d="M181.336 48.9149C176.257 47.6695 171.146 50.7829 169.901 55.8628C169.786 56.338 169.704 56.8132 169.671 57.2884C169.458 56.1741 169.475 54.9943 169.753 53.8308C170.818 49.472 175.209 46.8174 179.566 47.8825C180.697 48.1611 181.696 48.6527 182.564 49.3245C182.171 49.1443 181.762 49.0296 181.336 48.9149Z" fill="white"/>
<path fill-rule="evenodd" clip-rule="evenodd" d="M158.187 51.3401C151.389 47.8825 143.066 50.6027 139.626 57.4195C139.298 58.0586 139.036 58.7141 138.823 59.3695C138.889 57.7145 139.298 56.043 140.101 54.4699C143.066 48.6363 150.193 46.3094 156.025 49.259C157.532 50.0291 158.81 51.0615 159.809 52.2905C159.285 51.9464 158.744 51.6186 158.187 51.3401Z" fill="white"/>
<path fill-rule="evenodd" clip-rule="evenodd" d="M39.5456 163.212C31.8459 163.212 25.6042 169.455 25.6042 177.157C25.6042 177.878 25.6533 178.582 25.768 179.271C25.0636 177.747 24.6868 176.059 24.6868 174.289C24.6868 167.685 30.0274 162.343 36.6296 162.343C38.3333 162.343 39.9552 162.704 41.4296 163.343C40.8071 163.261 40.1846 163.212 39.5456 163.212Z" fill="white"/>
<path fill-rule="evenodd" clip-rule="evenodd" d="M21.0335 192.871C21.0335 195.805 23.4253 198.197 26.3578 198.197C26.6363 198.197 26.8984 198.181 27.1605 198.132C26.5871 198.394 25.9318 198.541 25.2602 198.541C22.7373 198.541 20.6895 196.493 20.6895 193.969C20.6895 193.314 20.8205 192.691 21.0662 192.134C21.0499 192.396 21.0335 192.626 21.0335 192.871Z" fill="white"/>
</g>
</g>
<defs>
<linearGradient id="paint0_linear_4_565" x1="36.6297" y1="160.344" x2="36.6297" y2="188.234" gradientUnits="userSpaceOnUse">
<stop stop-color="#F0CD80"/>
<stop offset="1" stop-color="#E3B552"/>
</linearGradient>
<linearGradient id="paint1_linear_4_565" x1="25.2602" y1="188.66" x2="25.2602" y2="199.311" gradientUnits="userSpaceOnUse">
<stop stop-color="#F0CD80"/>
<stop offset="1" stop-color="#E3B552"/>
</linearGradient>
<linearGradient id="paint2_linear_4_565" x1="177.625" y1="46.2809" x2="177.625" y2="65.2264" gradientUnits="userSpaceOnUse">
<stop stop-color="#F0CD80"/>
<stop offset="1" stop-color="#E3B552"/>
</linearGradient>
<linearGradient id="paint3_linear_4_565" x1="150.651" y1="46.0046" x2="150.651" y2="73.6414" gradientUnits="userSpaceOnUse">
<stop stop-color="#F0CD80"/>
<stop offset="1" stop-color="#E3B552"/>
</linearGradient>
<linearGradient id="paint4_linear_4_565" x1="446.191" y1="45.9989" x2="446.191" y2="73.641" gradientUnits="userSpaceOnUse">
<stop stop-color="#F0CD80"/>
<stop offset="1" stop-color="#E3B552"/>
</linearGradient>
<linearGradient id="paint5_linear_4_565" x1="419.217" y1="46.2645" x2="419.217" y2="65.2162" gradientUnits="userSpaceOnUse">
<stop stop-color="#F0CD80"/>
<stop offset="1" stop-color="#E3B552"/>
</linearGradient>
<linearGradient id="paint6_linear_4_565" x1="245.368" y1="83.424" x2="283.779" y2="167.777" gradientUnits="userSpaceOnUse">
<stop stop-color="#F0CD80"/>
<stop offset="1" stop-color="#E3B552"/>
</linearGradient>
<clipPath id="clip0_4_565">
<rect width="630" height="237" fill="white"/>
</clipPath>
<clipPath id="clip1_4_565">
<rect width="562.737" height="211.404" fill="white" transform="translate(17.0526 44.556)"/>
</clipPath>
</defs>
</svg>
