<svg width="563" height="114" viewBox="0 0 563 114" fill="none" xmlns="http://www.w3.org/2000/svg">
<g clip-path="url(#clip0_4_755)">
<path fill-rule="evenodd" clip-rule="evenodd" d="M169.851 13.4913C171.096 8.39717 167.982 3.25369 162.901 2.0048C157.82 0.755903 152.69 3.87814 151.445 8.97232C150.199 14.0665 153.313 19.21 158.394 20.4589C163.475 21.6913 168.605 18.5855 169.851 13.4913Z" fill="#E3B552"/>
<path fill-rule="evenodd" clip-rule="evenodd" d="M145.987 21.5763C149.445 14.7567 146.724 6.4088 139.906 2.95791C133.104 -0.509418 124.778 2.21843 121.336 9.03806C117.878 15.8577 120.598 24.2056 127.417 27.6729C134.219 31.1238 142.528 28.3959 145.987 21.5763Z" fill="#E3B552"/>
<path fill-rule="evenodd" clip-rule="evenodd" d="M435.583 27.6729C442.385 24.2056 445.106 15.8741 441.664 9.03807C438.206 2.21844 429.896 -0.509409 423.094 2.94149C416.292 6.40881 413.572 14.7403 417.013 21.5599C420.455 28.3959 428.782 31.1238 435.583 27.6729Z" fill="#E3B552"/>
<path fill-rule="evenodd" clip-rule="evenodd" d="M404.606 20.4425C409.687 19.1936 412.801 14.0501 411.555 8.9559C410.31 3.86172 405.18 0.739485 400.099 1.98838C395.018 3.23728 391.904 8.38075 393.149 13.4749C394.395 18.5855 399.525 21.6913 404.606 20.4425Z" fill="#E3B552"/>
<path fill-rule="evenodd" clip-rule="evenodd" d="M539.874 212H549.937C557.919 205.493 563 195.567 563 184.442C563 164.969 547.38 149.161 528.024 148.914C527.204 141.766 522.697 135.752 516.469 132.794C523.516 127.995 528.155 119.91 528.155 110.724C528.155 96.0171 516.255 84.0868 501.586 84.0868C493.817 84.0868 486.819 87.4227 481.967 92.7634C480.443 91.1529 478.755 89.6904 476.936 88.3922C476.87 82.1313 474.198 76.4949 469.937 72.5345C475.592 68.5742 479.296 62.0011 479.296 54.557C479.296 42.4624 469.511 32.652 457.448 32.652C453.35 32.652 449.515 33.7859 446.237 35.7579C440.894 32.7999 434.747 31.1074 428.208 31.1074C418.144 31.1074 409.031 35.1005 402.328 41.5915C398.87 36.711 393.477 33.3258 387.265 32.537C386.315 14.3952 371.351 0 353.059 0C346.339 0 340.078 1.93907 334.784 5.29137C330.965 3.10581 326.54 1.84048 321.82 1.84048C310.461 1.84048 300.808 9.08736 297.185 19.2264C293.481 14.6581 287.843 11.733 281.516 11.733C275.19 11.733 269.535 14.6581 265.847 19.2264C262.225 9.08736 252.571 1.84048 241.213 1.84048C236.493 1.84048 232.067 3.08937 228.249 5.29137C222.922 1.93907 216.661 0 209.941 0C191.633 0 176.685 14.3952 175.735 32.5206C169.523 33.3094 164.13 36.6945 160.672 41.5751C153.969 35.0841 144.839 31.0909 134.792 31.0909C128.253 31.0909 122.106 32.7835 116.763 35.7414C113.485 33.7695 109.65 32.6356 105.552 32.6356C93.4891 32.6356 83.7043 42.446 83.7043 54.5406C83.7043 61.9847 87.4084 68.5578 93.063 72.5181C88.8016 76.4784 86.13 82.1149 86.0644 88.3758C84.2451 89.674 82.5569 91.1365 81.0327 92.7469C76.1812 87.4227 69.1826 84.0704 61.4137 84.0704C46.7446 84.0704 34.8454 96.0006 34.8454 110.708C34.8454 119.894 39.4838 127.995 46.5315 132.777C40.3033 135.719 35.796 141.75 34.9765 148.898C15.6198 149.161 0 164.969 0 184.442C0 195.567 5.09732 205.493 13.0629 212H23.1264" fill="url(#paint0_linear_4_755)"/>
<path fill-rule="evenodd" clip-rule="evenodd" d="M523.336 115.178C523.336 100.454 511.437 88.5401 496.768 88.5401C495.309 88.5401 493.867 88.6551 492.473 88.8852C495.276 87.702 498.357 87.0612 501.586 87.0612C514.633 87.0612 525.204 97.6603 525.204 110.741C525.204 114.652 524.254 118.349 522.582 121.603C523.074 119.532 523.336 117.38 523.336 115.178Z" fill="white"/>
<path fill-rule="evenodd" clip-rule="evenodd" d="M474.28 55.5758C474.28 45.9462 468.085 37.7626 459.464 34.8212C469.445 35.84 477.214 44.27 477.214 54.5406C477.214 62.0175 473.084 68.5249 467.003 71.8936C471.461 67.884 474.28 62.0668 474.28 55.5758Z" fill="white"/>
<path fill-rule="evenodd" clip-rule="evenodd" d="M382.545 32.422C379.054 17.1723 365.434 5.80078 349.158 5.80078C345.323 5.80078 341.619 6.44166 338.177 7.6084C338.128 7.5591 338.079 7.52623 338.029 7.49337C342.471 4.99557 347.601 3.56592 353.059 3.56592C369.351 3.56592 382.676 16.2849 383.692 32.3562C383.299 32.3727 382.922 32.3891 382.545 32.422Z" fill="white"/>
<path fill-rule="evenodd" clip-rule="evenodd" d="M66.2324 88.5237C51.5633 88.5237 39.6641 100.454 39.6641 115.161C39.6641 117.363 39.9263 119.516 40.4344 121.57C38.7626 118.316 37.812 114.619 37.812 110.708C37.812 97.6275 48.3836 87.0283 61.4301 87.0283C64.659 87.0283 67.7403 87.6856 70.543 88.8523C69.1335 88.6387 67.6912 88.5237 66.2324 88.5237Z" fill="white"/>
<path fill-rule="evenodd" clip-rule="evenodd" d="M103.536 34.8212C94.9151 37.7626 88.7196 45.9298 88.7196 55.5758C88.7196 62.0668 91.5387 67.884 95.9968 71.9101C89.8997 68.5249 85.7858 62.0339 85.7858 54.557C85.7858 44.2865 93.5711 35.84 103.536 34.8212Z" fill="white"/>
<path fill-rule="evenodd" clip-rule="evenodd" d="M179.308 32.3562C180.324 16.2849 193.649 3.56592 209.941 3.56592C215.399 3.56592 220.529 4.99557 224.971 7.49337C224.921 7.52623 224.872 7.57553 224.823 7.6084C221.381 6.44166 217.677 5.80078 213.842 5.80078C197.566 5.80078 183.963 17.1723 180.455 32.422C180.078 32.3891 179.685 32.3727 179.308 32.3562Z" fill="white"/>
<path fill-rule="evenodd" clip-rule="evenodd" d="M455.071 108.26C450.843 108.26 446.925 106.912 443.729 104.644C446.27 105.696 449.072 106.271 451.99 106.271C464.053 106.271 473.838 96.4607 473.838 84.3662C473.838 83.7746 473.821 83.1994 473.772 82.6078C474.379 84.4976 474.69 86.5024 474.69 88.5894C474.707 99.4515 465.921 108.26 455.071 108.26Z" fill="white"/>
<path fill-rule="evenodd" clip-rule="evenodd" d="M460.136 78.6475C460.283 77.2672 460.365 75.854 460.365 74.4243C460.365 53.7847 443.68 37.056 423.094 37.056C419.751 37.056 416.489 37.4997 413.408 38.3378C417.866 36.1358 422.897 34.8869 428.208 34.8869C446.712 34.8869 461.709 49.9229 461.709 68.4756C461.709 72.0087 461.152 75.4267 460.136 78.6475Z" fill="white"/>
<path fill-rule="evenodd" clip-rule="evenodd" d="M384.512 73.3233C375.694 73.3233 368.286 67.3089 366.122 59.1582C369.859 65.8628 377.005 70.3983 385.217 70.3983C391.527 70.3983 397.214 67.7197 401.213 63.4143C397.952 69.3301 391.691 73.3233 384.512 73.3233Z" fill="white"/>
<path fill-rule="evenodd" clip-rule="evenodd" d="M340.111 13.6557C335.637 10.0733 329.966 7.93707 323.803 7.93707C311.707 7.93707 301.545 16.1535 298.529 27.3278C298.923 14.7896 309.199 4.73267 321.803 4.73267C329.228 4.73267 335.85 8.21643 340.111 13.6557Z" fill="white"/>
<path fill-rule="evenodd" clip-rule="evenodd" d="M327.655 73.9971C317.23 73.9971 308.773 65.5177 308.773 55.0664C308.773 54.2119 308.822 53.3574 308.937 52.5193C310.674 62.872 319.656 70.7598 330.474 70.7598C334.637 70.7598 338.521 69.5931 341.832 67.5718C338.374 71.5157 333.309 73.9971 327.655 73.9971Z" fill="white"/>
<path fill-rule="evenodd" clip-rule="evenodd" d="M119.271 104.644C116.075 106.928 112.157 108.26 107.929 108.26C97.0949 108.26 88.3098 99.4515 88.3098 88.5894C88.3098 86.5024 88.6376 84.4812 89.2277 82.6078C89.1785 83.183 89.1621 83.7746 89.1621 84.3662C89.1621 96.4607 98.947 106.271 111.01 106.271C113.928 106.271 116.714 105.68 119.271 104.644Z" fill="white"/>
<path fill-rule="evenodd" clip-rule="evenodd" d="M102.618 74.4243C102.618 75.854 102.7 77.2672 102.848 78.6476C101.832 75.4432 101.274 72.0087 101.274 68.4592C101.274 49.9065 116.271 34.8705 134.776 34.8705C140.086 34.8705 145.118 36.1029 149.576 38.3214C146.495 37.4833 143.233 37.0396 139.889 37.0396C119.304 37.0396 102.618 53.7847 102.618 74.4243Z" fill="white"/>
<path fill-rule="evenodd" clip-rule="evenodd" d="M296.153 22.9238C292.481 19.0292 287.269 16.5972 281.5 16.5972C275.731 16.5972 270.519 19.0292 266.847 22.9238C266.814 22.7759 266.798 22.6444 266.765 22.4965C269.879 17.6324 275.321 14.4116 281.5 14.4116C287.695 14.4116 293.121 17.6324 296.235 22.4965C296.202 22.6444 296.186 22.7759 296.153 22.9238Z" fill="white"/>
<path fill-rule="evenodd" clip-rule="evenodd" d="M239.197 7.93705C233.035 7.93705 227.364 10.0733 222.889 13.6557C227.15 8.23285 233.772 4.74908 241.197 4.74908C253.801 4.74908 264.061 14.7895 264.471 27.3442C261.455 16.1535 251.277 7.93705 239.197 7.93705Z" fill="white"/>
<path fill-rule="evenodd" clip-rule="evenodd" d="M196.878 59.1747C194.714 67.3253 187.306 73.3398 178.488 73.3398C171.293 73.3398 165.032 69.3466 161.803 63.4308C165.786 67.7197 171.49 70.4147 177.8 70.4147C185.995 70.4147 193.141 65.8792 196.878 59.1747Z" fill="white"/>
<path fill-rule="evenodd" clip-rule="evenodd" d="M235.345 73.9971C229.691 73.9971 224.626 71.5157 221.168 67.5718C224.479 69.5931 228.363 70.7598 232.526 70.7598C243.344 70.7598 252.326 62.872 254.063 52.5193C254.178 53.3574 254.227 54.1955 254.227 55.0664C254.227 65.5177 245.77 73.9971 235.345 73.9971Z" fill="white"/>
<path fill-rule="evenodd" clip-rule="evenodd" d="M440.369 12.8998C436.911 6.08016 428.601 3.35231 421.783 6.80321C421.226 7.08257 420.685 7.41122 420.177 7.75631C421.193 6.52385 422.455 5.47215 423.963 4.71624C429.798 1.75833 436.927 4.09179 439.894 9.94188C440.697 11.5194 441.107 13.1956 441.172 14.8553C440.959 14.1816 440.697 13.5407 440.369 12.8998Z" fill="white"/>
<path fill-rule="evenodd" clip-rule="evenodd" d="M410.08 11.3386C408.835 6.24447 403.705 3.12223 398.624 4.37112C398.198 4.46972 397.804 4.60118 397.411 4.76551C398.28 4.1082 399.279 3.59878 400.41 3.31942C404.77 2.25129 409.163 4.92984 410.228 9.28454C410.523 10.4677 410.539 11.6344 410.31 12.7519C410.277 12.2917 410.195 11.8152 410.08 11.3386Z" fill="white"/>
<path fill-rule="evenodd" clip-rule="evenodd" d="M164.36 4.37112C159.279 3.12223 154.165 6.24447 152.92 11.3386C152.805 11.8152 152.723 12.2917 152.69 12.7683C152.477 11.6509 152.494 10.4677 152.772 9.30097C153.837 4.92984 158.23 2.26772 162.59 3.33586C163.721 3.61521 164.721 4.1082 165.589 4.78194C165.196 4.60118 164.786 4.48615 164.36 4.37112Z" fill="white"/>
<path fill-rule="evenodd" clip-rule="evenodd" d="M141.201 6.80321C134.399 3.33588 126.073 6.06373 122.631 12.8998C122.303 13.5407 122.041 14.198 121.828 14.8553C121.893 13.1956 122.303 11.5194 123.106 9.94188C126.073 4.09179 133.202 1.75833 139.037 4.71624C140.545 5.48858 141.824 6.52385 142.823 7.75631C142.299 7.41122 141.758 7.08257 141.201 6.80321Z" fill="white"/>
</g>
<defs>
<linearGradient id="paint0_linear_4_755" x1="281.5" y1="-4.30167e-06" x2="308.666" y2="106.436" gradientUnits="userSpaceOnUse">
<stop stop-color="#FFDD93"/>
<stop offset="1" stop-color="#E3B552"/>
</linearGradient>
<clipPath id="clip0_4_755">
<rect width="563" height="212" fill="white"/>
</clipPath>
</defs>
</svg>
