<svg width="332" height="136" viewBox="0 0 332 136" fill="none" xmlns="http://www.w3.org/2000/svg">
<g clip-path="url(#clip0_4_603)">
<path fill-rule="evenodd" clip-rule="evenodd" d="M206.62 27.1508C213.313 23.7489 215.991 15.5746 212.604 8.86753C209.201 2.17657 201.024 -0.499809 194.331 2.88597C187.638 6.28788 184.96 14.4621 188.347 21.1531C191.734 27.8602 199.927 30.5365 206.62 27.1508Z" fill="#E3B552"/>
<path fill-rule="evenodd" clip-rule="evenodd" d="M176.138 20.0567C181.138 18.8314 184.202 13.785 182.977 8.7869C181.751 3.78884 176.703 0.72551 171.703 1.95084C166.703 3.17617 163.639 8.2226 164.865 13.2207C166.09 18.2348 171.139 21.2821 176.138 20.0567Z" fill="#E3B552"/>
<path d="M312.727 141.365C320.307 141.365 326.452 135.222 326.452 127.644C326.452 120.066 320.307 113.924 312.727 113.924C305.147 113.924 299.002 120.066 299.002 127.644C299.002 135.222 305.147 141.365 312.727 141.365Z" fill="#E3B552"/>
<path fill-rule="evenodd" clip-rule="evenodd" d="M309.243 208H319.146C327 201.615 332 191.877 332 180.962C332 161.857 316.63 146.346 297.583 146.105C296.776 139.091 292.341 133.19 286.212 130.288C293.147 125.58 297.712 117.648 297.712 108.635C297.712 94.2054 286.003 82.5003 271.568 82.5003C263.923 82.5003 257.037 85.7732 252.263 91.0131C250.763 89.4331 249.102 87.9981 247.311 86.7244C247.247 80.5817 244.618 75.0515 240.425 71.166C245.989 67.2804 249.634 60.8313 249.634 53.5276C249.634 41.6613 240.005 32.036 228.135 32.036C224.103 32.036 220.329 33.1484 217.103 35.0832C211.846 32.1811 205.798 30.5204 199.363 30.5204C189.46 30.5204 180.493 34.4383 173.896 40.8068C170.493 36.0183 165.187 32.697 159.075 31.9231C158.139 14.1236 143.414 0 125.415 0C118.803 0 112.642 1.90249 107.432 5.19154C103.675 3.04721 99.32 1.80575 94.6751 1.80575C83.4984 1.80575 73.9989 8.9159 70.4346 18.8637C66.7896 14.3815 61.2416 11.5117 55.0161 11.5117C48.7907 11.5117 43.2265 14.3815 39.5977 18.8637C36.0334 8.9159 26.5339 1.80575 15.3571 1.80575C10.7122 1.80575 6.35767 3.03108 2.59982 5.19154C-2.64182 1.90249 -8.80273 0 -15.4153 0C-33.4303 0 -48.1392 14.1236 -49.0746 31.907C-55.1871 32.6809 -60.4933 36.0022 -63.8963 40.7906C-70.4927 34.4221 -79.476 30.5043 -89.3626 30.5043C-95.7977 30.5043 -101.846 32.1649 -107.103 35.067C-110.329 33.1323 -114.103 32.0198 -118.135 32.0198C-130.005 32.0198 -139.634 41.6451 -139.634 53.5115C-139.634 60.8151 -135.989 67.2642 -130.425 71.1498C-134.618 75.0354 -137.247 80.5655 -137.311 86.7083C-139.102 87.982 -140.763 89.4169 -142.263 90.997C-147.037 85.7732 -153.923 82.4841 -161.568 82.4841C-176.003 82.4841 -187.712 94.1893 -187.712 108.619C-187.712 117.632 -183.147 125.58 -176.212 130.272C-182.341 133.158 -186.776 139.075 -187.583 146.089C-206.63 146.346 -222 161.857 -222 180.962C-222 191.877 -216.984 201.615 -209.146 208H-199.243" fill="url(#paint0_linear_4_603)"/>
<path fill-rule="evenodd" clip-rule="evenodd" d="M292.97 113.005C292.97 98.5586 281.261 86.8695 266.826 86.8695C265.391 86.8695 263.972 86.9824 262.601 87.2081C265.359 86.0473 268.391 85.4185 271.568 85.4185C284.406 85.4185 294.809 95.8177 294.809 108.651C294.809 112.489 293.873 116.116 292.228 119.309C292.712 117.277 292.97 115.165 292.97 113.005Z" fill="white"/>
<path fill-rule="evenodd" clip-rule="evenodd" d="M244.699 54.5273C244.699 45.0793 238.602 37.0502 230.119 34.1642C239.941 35.1638 247.586 43.4348 247.586 53.5115C247.586 60.8474 243.521 67.232 237.538 70.5372C241.925 66.6032 244.699 60.8958 244.699 54.5273Z" fill="white"/>
<path fill-rule="evenodd" clip-rule="evenodd" d="M154.43 31.8103C150.994 16.8483 137.592 5.69136 121.577 5.69136C117.803 5.69136 114.158 6.32014 110.771 7.46486C110.723 7.41649 110.674 7.38425 110.626 7.352C114.996 4.90134 120.045 3.49866 125.415 3.49866C141.447 3.49866 154.559 15.9777 155.559 31.7458C155.172 31.7619 154.801 31.778 154.43 31.8103Z" fill="white"/>
<path fill-rule="evenodd" clip-rule="evenodd" d="M286.68 164.017C290.567 160.357 292.986 155.182 292.986 149.426C292.986 140.72 287.438 133.319 279.697 130.546C288.68 131.562 295.68 139.172 295.68 148.442C295.664 155.085 292.051 160.905 286.68 164.017Z" fill="white"/>
<path fill-rule="evenodd" clip-rule="evenodd" d="M225.796 106.217C221.635 106.217 217.781 104.895 214.636 102.67C217.136 103.702 219.893 104.266 222.764 104.266C234.635 104.266 244.263 94.6407 244.263 82.7744C244.263 82.1939 244.247 81.6296 244.199 81.0492C244.795 82.9033 245.102 84.8703 245.102 86.9179C245.118 97.5751 236.473 106.217 225.796 106.217Z" fill="white"/>
<path fill-rule="evenodd" clip-rule="evenodd" d="M230.78 77.1636C230.925 75.8093 231.006 74.4228 231.006 73.0201C231.006 52.7699 214.587 36.3569 194.331 36.3569C191.04 36.3569 187.831 36.7922 184.799 37.6145C189.186 35.454 194.137 34.2287 199.363 34.2287C217.571 34.2287 232.328 48.981 232.328 67.1836C232.328 70.65 231.78 74.0036 230.78 77.1636Z" fill="white"/>
<path fill-rule="evenodd" clip-rule="evenodd" d="M156.365 71.9399C147.688 71.9399 140.398 66.0389 138.269 58.042C141.946 64.6201 148.978 69.07 157.059 69.07C163.268 69.07 168.864 66.442 172.8 62.2178C169.59 68.022 163.429 71.9399 156.365 71.9399Z" fill="white"/>
<path fill-rule="evenodd" clip-rule="evenodd" d="M112.674 13.398C108.271 9.88328 102.691 7.78731 96.6266 7.78731C84.7241 7.78731 74.7246 15.8487 71.7571 26.8122C72.1442 14.5105 82.2565 4.64337 94.659 4.64337C101.965 4.64337 108.481 8.0614 112.674 13.398Z" fill="white"/>
<path fill-rule="evenodd" clip-rule="evenodd" d="M100.417 72.6009C90.1592 72.6009 81.8372 64.2815 81.8372 54.0274C81.8372 53.1891 81.8855 52.3507 81.9984 51.5284C83.708 61.6858 92.5462 69.4247 103.191 69.4247C107.287 69.4247 111.11 68.28 114.368 66.2969C110.965 70.1663 105.981 72.6009 100.417 72.6009Z" fill="white"/>
<path fill-rule="evenodd" clip-rule="evenodd" d="M69.4187 22.4913C65.806 18.6702 60.6772 16.284 55.0001 16.284C49.323 16.284 44.1943 18.6702 40.5816 22.4913C40.5494 22.3462 40.5332 22.2172 40.501 22.0721C43.5653 17.2997 48.9198 14.1397 55.0001 14.1397C61.0966 14.1397 66.435 17.2997 69.4993 22.0721C69.467 22.2172 69.4509 22.3462 69.4187 22.4913Z" fill="white"/>
<path fill-rule="evenodd" clip-rule="evenodd" d="M13.3734 7.7873C7.30922 7.7873 1.7289 9.88327 -2.67407 13.398C1.51923 8.07751 8.03497 4.65948 15.341 4.65948C27.7435 4.65948 37.8397 14.5105 38.2429 26.8283C35.2753 15.8487 25.2598 7.7873 13.3734 7.7873Z" fill="white"/>
<path fill-rule="evenodd" clip-rule="evenodd" d="M9.58337 72.6009C4.01918 72.6009 -0.964404 70.1663 -4.36743 66.2969C-1.10956 68.28 2.71279 69.4247 6.80932 69.4247C17.4539 69.4247 26.2921 61.6858 28.0016 51.5284C28.1145 52.3507 28.1629 53.1729 28.1629 54.0274C28.1629 64.2815 19.8408 72.6009 9.58337 72.6009Z" fill="white"/>
<path fill-rule="evenodd" clip-rule="evenodd" d="M323.565 130.466C323.565 122.888 317.42 116.745 309.84 116.745C309.211 116.745 308.598 116.777 308.001 116.874C309.453 116.245 311.05 115.891 312.727 115.891C319.227 115.891 324.484 121.147 324.484 127.644C324.484 129.401 324.097 131.062 323.42 132.545C323.517 131.868 323.565 131.175 323.565 130.466Z" fill="white"/>
<path fill-rule="evenodd" clip-rule="evenodd" d="M211.33 12.6564C207.927 5.96542 199.75 3.28904 193.04 6.67483C192.492 6.94891 191.96 7.27137 191.46 7.60995C192.46 6.40074 193.702 5.36888 195.186 4.62723C200.927 1.72513 207.943 4.01457 210.862 9.75428C211.652 11.3021 212.056 12.9466 212.12 14.575C211.91 13.914 211.652 13.2852 211.33 12.6564Z" fill="white"/>
<path fill-rule="evenodd" clip-rule="evenodd" d="M181.525 11.1247C180.299 6.12665 175.251 3.06332 170.251 4.28865C169.832 4.38539 169.445 4.51437 169.058 4.6756C169.913 4.03069 170.896 3.53088 172.009 3.2568C176.299 2.20881 180.622 4.83683 181.67 9.10936C181.96 10.2702 181.976 11.4149 181.751 12.5113C181.718 12.0598 181.638 11.5923 181.525 11.1247Z" fill="white"/>
</g>
<defs>
<linearGradient id="paint0_linear_4_603" x1="-5.15656" y1="139.91" x2="143.61" y2="38.2534" gradientUnits="userSpaceOnUse">
<stop stop-color="#E3B552"/>
<stop offset="1" stop-color="#EECA7E"/>
</linearGradient>
<clipPath id="clip0_4_603">
<rect width="554" height="208" fill="white" transform="translate(-222)"/>
</clipPath>
</defs>
</svg>
