<svg width="1015" height="900" viewBox="0 0 1015 900" fill="none" xmlns="http://www.w3.org/2000/svg">
<path d="M1132.97 470.624C1182.15 418.36 1238.02 368.006 1268.34 301.661C1294.36 244.863 1300.81 176.61 1265.95 122.198C1231.33 68.0246 1166.39 33.1819 1111.24 3.5895C1080.68 -12.8772 1048.69 -27.1961 1015.02 -35.7875C997.593 -40.3218 979.686 -42.9469 961.78 -43.4242C942.68 -43.9015 924.057 -44.3788 904.718 -45.3334C845.03 -48.4358 768.152 -42.231 725.893 6.21463C702.256 33.1819 696.049 70.1724 666.921 93.0826C641.613 112.89 608.904 120.766 577.389 122.675C505.047 127.209 433.899 98.0943 361.557 113.368C306.166 125.062 256.267 157.995 221.409 202.145C182.254 251.784 168.168 309.537 171.033 372.063C172.943 411.201 178.673 451.294 170.316 489.955C161.96 528.855 136.652 558.447 109.912 586.607C63.1166 636.246 20.8575 691.374 4.62235 759.389C-8.50902 814.755 5.09985 875.372 61.4454 899.475C118.03 923.818 179.628 905.919 234.541 885.872C268.444 873.463 302.824 859.86 338.875 855.803C378.747 851.268 418.141 860.337 454.431 876.327C524.386 907.112 580.015 960.808 641.613 1004.72C695.094 1042.66 753.588 1070.11 819.484 1075.12C938.382 1084.19 1080.68 1022.86 1122.46 903.294C1142.28 846.495 1126.52 788.981 1107.18 734.569C1088.08 680.635 1061.1 621.689 1074.71 563.22C1083.54 526.707 1107.9 497.592 1132.97 470.624Z" fill="url(#paint0_linear_0_1)"/>
<path d="M771.448 416C771.448 425.052 764.162 432.339 755.109 432.339C764.162 432.339 771.448 439.625 771.448 448.677C771.448 439.625 778.734 432.339 787.787 432.339C778.734 432.339 771.448 425.052 771.448 416Z" fill="#FFECB6"/>
<path d="M809.203 416C809.203 442.301 788.034 463.47 761.733 463.47C788.034 463.47 809.203 484.64 809.203 510.941C809.203 484.64 830.373 463.47 856.674 463.47C830.373 463.47 809.203 442.301 809.203 416Z" fill="#FFECB6"/>
<path d="M298.472 519.772C298.472 524.889 294.354 529.007 289.238 529.007C294.354 529.007 298.472 533.125 298.472 538.242C298.472 533.125 302.591 529.007 307.707 529.007C302.591 529.007 298.472 524.889 298.472 519.772Z" fill="#FFECB6"/>
<path d="M319.813 519.772C319.813 534.638 307.847 546.603 292.981 546.603C307.847 546.603 319.813 558.569 319.813 573.434C319.813 558.569 331.778 546.603 346.644 546.603C331.778 546.603 319.813 534.638 319.813 519.772Z" fill="#FFECB6"/>
<defs>
<linearGradient id="paint0_linear_0_1" x1="476.112" y1="356.142" x2="932.661" y2="832.927" gradientUnits="userSpaceOnUse">
<stop stop-color="#FFDE68"/>
<stop offset="1" stop-color="#D09A43"/>
</linearGradient>
</defs>
</svg>
