<svg width="144" height="54" viewBox="0 0 144 54" fill="none" xmlns="http://www.w3.org/2000/svg">
<g clip-path="url(#clip0_4_798)">
<path d="M5.00965 36.7004C6.97993 36.7004 8.57716 35.1056 8.57716 33.1384C8.57716 31.1711 6.97993 29.5763 5.00965 29.5763C3.03937 29.5763 1.44214 31.1711 1.44214 33.1384C1.44214 35.1056 3.03937 36.7004 5.00965 36.7004Z" fill="#E3B552"/>
<path fill-rule="evenodd" clip-rule="evenodd" d="M3.46268 38.1696C3.46268 37.4204 2.85482 36.8092 2.10024 36.8092C1.34985 36.8092 0.737793 37.4204 0.737793 38.1696C0.737793 38.9188 1.34565 39.53 2.10024 39.53C2.85482 39.53 3.46268 38.9188 3.46268 38.1696Z" fill="#E3B552"/>
<path fill-rule="evenodd" clip-rule="evenodd" d="M43.4432 3.43646C43.7618 2.13889 42.9653 0.82876 41.6658 0.510645C40.3662 0.19253 39.0541 0.987818 38.7355 2.28539C38.4169 3.58296 39.2134 4.8931 40.5129 5.21121C41.8125 5.52514 43.1246 4.73404 43.4432 3.43646Z" fill="#E3B552"/>
<path fill-rule="evenodd" clip-rule="evenodd" d="M37.3395 5.49584C38.224 3.75877 37.5281 1.63242 35.7842 0.753421C34.0445 -0.129766 31.9149 0.565064 31.0345 2.30214C30.15 4.03921 30.8459 6.16556 32.5898 7.04875C34.3295 7.92775 36.4549 7.23292 37.3395 5.49584Z" fill="#E3B552"/>
<path fill-rule="evenodd" clip-rule="evenodd" d="M111.41 7.04875C113.15 6.16557 113.846 4.04341 112.966 2.30214C112.081 0.56507 109.956 -0.12976 108.216 0.749242C106.476 1.63243 105.78 3.75459 106.661 5.49166C107.541 7.23293 109.671 7.92776 111.41 7.04875Z" fill="#E3B552"/>
<path fill-rule="evenodd" clip-rule="evenodd" d="M103.487 5.20703C104.787 4.88892 105.583 3.57878 105.265 2.28121C104.946 0.983637 103.634 0.188349 102.334 0.506464C101.035 0.824579 100.238 2.13471 100.557 3.43228C100.875 4.73404 102.187 5.52515 103.487 5.20703Z" fill="#E3B552"/>
<path d="M138.99 36.7004C140.961 36.7004 142.558 35.1056 142.558 33.1384C142.558 31.1711 140.961 29.5763 138.99 29.5763C137.02 29.5763 135.423 31.1711 135.423 33.1384C135.423 35.1056 137.02 36.7004 138.99 36.7004Z" fill="#E3B552"/>
<path fill-rule="evenodd" clip-rule="evenodd" d="M141.896 36.8092C141.145 36.8092 140.533 37.4204 140.533 38.1696C140.533 38.9188 141.145 39.53 141.896 39.53C142.646 39.53 143.258 38.923 143.258 38.1696C143.258 37.4162 142.65 36.8092 141.896 36.8092Z" fill="#E3B552"/>
<path fill-rule="evenodd" clip-rule="evenodd" d="M10.1409 38.7891C10.1409 38.877 10.1451 38.9649 10.1493 39.0486L10.1409 38.7891Z" fill="#E3B552"/>
<path fill-rule="evenodd" clip-rule="evenodd" d="M138.085 54H140.659C142.7 52.3425 144 49.8143 144 46.9805C144 42.0205 140.005 37.9938 135.054 37.931C134.844 36.1102 133.692 34.5782 132.099 33.8248C133.901 32.6026 135.088 30.5432 135.088 28.2034C135.088 24.4572 132.044 21.4183 128.292 21.4183C126.305 21.4183 124.515 22.268 123.274 23.6284C122.884 23.2182 122.452 22.8457 121.987 22.515C121.97 20.9202 121.287 19.4845 120.197 18.4758C121.643 17.467 122.591 15.7927 122.591 13.8966C122.591 10.8159 120.088 8.31703 117.003 8.31703C115.955 8.31703 114.974 8.60584 114.135 9.10813C112.769 8.3547 111.197 7.92357 109.524 7.92357C106.95 7.92357 104.619 8.9407 102.904 10.5941C102.02 9.3509 100.641 8.48864 99.0519 8.28773C98.8087 3.66669 94.9813 0 90.3029 0C88.5841 0 86.9827 0.493915 85.6286 1.3478C84.6519 0.791102 83.52 0.468801 82.3127 0.468801C79.4075 0.468801 76.9383 2.3147 76.0119 4.89729C75.0644 3.73366 73.6224 2.98861 72.0042 2.98861C70.386 2.98861 68.9397 3.73366 67.9965 4.89729C67.07 2.3147 64.6009 0.468801 61.6957 0.468801C60.4884 0.468801 59.3565 0.786916 58.3797 1.3478C57.0173 0.493915 55.4159 0 53.6971 0C49.0145 0 45.1913 3.66669 44.9481 8.28354C43.3593 8.48446 41.9801 9.34672 41.0955 10.5899C39.381 8.93652 37.0459 7.91939 34.4762 7.91939C32.8035 7.91939 31.2314 8.35052 29.8648 9.10395C29.0264 8.60166 28.0454 8.31284 26.9974 8.31284C23.912 8.31284 21.4093 10.8117 21.4093 13.8924C21.4093 15.7885 22.3567 17.4628 23.803 18.4716C22.713 19.4804 22.0297 20.9161 22.0129 22.5108C21.5476 22.8415 21.1158 23.214 20.7259 23.6242C19.4851 22.268 17.695 21.4142 15.7079 21.4142C11.956 21.4142 8.91249 24.453 8.91249 28.1992C8.91249 30.539 10.0989 32.6026 11.9015 33.8206C10.3085 34.5699 9.15563 36.106 8.94603 37.9268C3.99511 37.9938 0 42.0205 0 46.9805C0 49.8143 1.30376 52.3425 3.34114 54H5.91511" fill="url(#paint0_linear_4_798)"/>
<path fill-rule="evenodd" clip-rule="evenodd" d="M133.855 29.3377C133.855 25.5873 130.811 22.5527 127.06 22.5527C126.686 22.5527 126.318 22.582 125.961 22.6406C126.678 22.3392 127.466 22.176 128.292 22.176C131.629 22.176 134.333 24.8758 134.333 28.2076C134.333 29.2038 134.09 30.1456 133.662 30.9744C133.788 30.447 133.855 29.8986 133.855 29.3377Z" fill="white"/>
<path fill-rule="evenodd" clip-rule="evenodd" d="M121.308 14.1561C121.308 11.7033 119.723 9.61878 117.518 8.86954C120.071 9.12905 122.058 11.2763 122.058 13.8924C122.058 15.7969 121.002 17.4545 119.447 18.3125C120.587 17.2912 121.308 15.8095 121.308 14.1561Z" fill="white"/>
<path fill-rule="evenodd" clip-rule="evenodd" d="M97.8446 8.25842C96.9517 4.37407 93.468 1.47755 89.3052 1.47755C88.3242 1.47755 87.3768 1.6408 86.4965 1.93798C86.4839 1.92543 86.4713 1.91705 86.4587 1.90868C87.5948 1.27245 88.907 0.908295 90.3029 0.908295C94.4699 0.908295 97.8781 4.14804 98.138 8.24168C98.0374 8.24587 97.941 8.25005 97.8446 8.25842Z" fill="white"/>
<path fill-rule="evenodd" clip-rule="evenodd" d="M16.9406 22.5485C13.1886 22.5485 10.1451 25.5873 10.1451 29.3335C10.1451 29.8944 10.2122 30.4427 10.3421 30.966C9.91453 30.1372 9.67139 29.1954 9.67139 28.1992C9.67139 24.8674 12.3753 22.1676 15.7123 22.1676C16.5381 22.1676 17.3262 22.335 18.0431 22.6322C17.6826 22.5778 17.3137 22.5485 16.9406 22.5485Z" fill="white"/>
<path fill-rule="evenodd" clip-rule="evenodd" d="M26.4817 8.86954C24.2767 9.61878 22.692 11.6991 22.692 14.1561C22.692 15.8095 23.4131 17.2912 24.5534 18.3167C22.9939 17.4545 21.9417 15.8011 21.9417 13.8966C21.9417 11.2805 23.9329 9.12905 26.4817 8.86954Z" fill="white"/>
<path fill-rule="evenodd" clip-rule="evenodd" d="M45.8621 8.24168C46.122 4.14804 49.5302 0.908295 53.6972 0.908295C55.0932 0.908295 56.4053 1.27245 57.5414 1.90868C57.5288 1.91705 57.5162 1.92961 57.5036 1.93798C56.6233 1.6408 55.6759 1.47755 54.6949 1.47755C50.5321 1.47755 47.0526 4.37407 46.1555 8.25842C46.0591 8.25005 45.9585 8.24587 45.8621 8.24168Z" fill="white"/>
<path fill-rule="evenodd" clip-rule="evenodd" d="M132.22 42.5813C133.23 41.6312 133.859 40.2876 133.859 38.7933C133.859 36.533 132.417 34.6117 130.405 33.8918C132.74 34.1555 134.559 36.1311 134.559 38.5379C134.555 40.2625 133.616 41.7735 132.22 42.5813Z" fill="white"/>
<path fill-rule="evenodd" clip-rule="evenodd" d="M116.395 27.5755C115.313 27.5755 114.311 27.2323 113.494 26.6547C114.144 26.9226 114.861 27.0691 115.607 27.0691C118.692 27.0691 121.195 24.5702 121.195 21.4895C121.195 21.3388 121.191 21.1923 121.178 21.0416C121.333 21.523 121.413 22.0336 121.413 22.5652C121.417 25.332 119.17 27.5755 116.395 27.5755Z" fill="white"/>
<path fill-rule="evenodd" clip-rule="evenodd" d="M117.69 20.0329C117.728 19.6813 117.749 19.3213 117.749 18.9571C117.749 13.6999 113.481 9.43881 108.216 9.43881C107.361 9.43881 106.526 9.55182 105.738 9.76529C106.879 9.20441 108.166 8.88629 109.524 8.88629C114.257 8.88629 118.093 12.7162 118.093 17.4419C118.093 18.3418 117.95 19.2125 117.69 20.0329Z" fill="white"/>
<path fill-rule="evenodd" clip-rule="evenodd" d="M98.3476 18.6767C96.0923 18.6767 94.1974 17.1447 93.644 15.0686C94.5999 16.7764 96.4276 17.9316 98.5279 17.9316C100.142 17.9316 101.597 17.2494 102.619 16.1527C101.785 17.6596 100.184 18.6767 98.3476 18.6767Z" fill="white"/>
<path fill-rule="evenodd" clip-rule="evenodd" d="M86.9912 3.47832C85.8467 2.56583 84.3962 2.02169 82.82 2.02169C79.7262 2.02169 77.1271 4.11455 76.3557 6.96084C76.4563 3.76714 79.0848 1.20547 82.3086 1.20547C84.2076 1.20547 85.9012 2.09285 86.9912 3.47832Z" fill="white"/>
<path fill-rule="evenodd" clip-rule="evenodd" d="M83.8052 18.8483C81.139 18.8483 78.9758 16.6885 78.9758 14.0264C78.9758 13.8087 78.9884 13.591 79.0178 13.3776C79.4621 16.0146 81.7594 18.0237 84.5262 18.0237C85.591 18.0237 86.5846 17.7265 87.4314 17.2117C86.5468 18.2163 85.2515 18.8483 83.8052 18.8483Z" fill="white"/>
<path fill-rule="evenodd" clip-rule="evenodd" d="M30.5061 26.6547C29.6886 27.2365 28.6867 27.5755 27.6051 27.5755C24.8341 27.5755 22.5872 25.332 22.5872 22.5652C22.5872 22.0336 22.671 21.5188 22.8219 21.0416C22.8093 21.1881 22.8051 21.3388 22.8051 21.4895C22.8051 24.5702 25.3079 27.0691 28.3933 27.0691C29.1395 27.0691 29.8521 26.9184 30.5061 26.6547Z" fill="white"/>
<path fill-rule="evenodd" clip-rule="evenodd" d="M26.2471 18.9571C26.2471 19.3213 26.268 19.6813 26.3058 20.0329C26.0459 19.2167 25.9033 18.3418 25.9033 17.4377C25.9033 12.712 29.7391 8.88211 34.4721 8.88211C35.8303 8.88211 37.1173 9.19604 38.2576 9.76111C37.4694 9.54764 36.6352 9.43463 35.78 9.43463C30.5147 9.43463 26.2471 13.6999 26.2471 18.9571Z" fill="white"/>
<path fill-rule="evenodd" clip-rule="evenodd" d="M75.7477 5.83907C74.8087 4.84706 73.4756 4.22757 71.9999 4.22757C70.5243 4.22757 69.1912 4.84706 68.2522 5.83907C68.2438 5.8014 68.2396 5.76791 68.2312 5.73024C69.0277 4.49127 70.4195 3.67087 71.9999 3.67087C73.5846 3.67087 74.9722 4.49127 75.7687 5.73024C75.7603 5.76791 75.7561 5.8014 75.7477 5.83907Z" fill="white"/>
<path fill-rule="evenodd" clip-rule="evenodd" d="M61.18 2.02172C59.6037 2.02172 58.1532 2.56586 57.0088 3.47835C58.0987 2.09706 59.7924 1.20969 61.6914 1.20969C64.9152 1.20969 67.5394 3.76716 67.6442 6.96505C66.8729 4.11458 64.2696 2.02172 61.18 2.02172Z" fill="white"/>
<path fill-rule="evenodd" clip-rule="evenodd" d="M50.3559 15.0728C49.8026 17.1489 47.9077 18.6809 45.6524 18.6809C43.812 18.6809 42.2106 17.6637 41.3848 16.1569C42.4035 17.2494 43.8623 17.9358 45.4763 17.9358C47.5724 17.9358 49.4001 16.7806 50.3559 15.0728Z" fill="white"/>
<path fill-rule="evenodd" clip-rule="evenodd" d="M60.195 18.8483C58.7488 18.8483 57.4534 18.2163 56.5688 17.2117C57.4157 17.7265 58.4092 18.0237 59.474 18.0237C62.2408 18.0237 64.5381 16.0146 64.9825 13.3776C65.0118 13.591 65.0244 13.8045 65.0244 14.0264C65.0244 16.6885 62.8612 18.8483 60.195 18.8483Z" fill="white"/>
<path fill-rule="evenodd" clip-rule="evenodd" d="M141.808 33.8709C141.808 31.9036 140.21 30.3088 138.24 30.3088C138.077 30.3088 137.917 30.3172 137.762 30.3423C138.139 30.1791 138.555 30.087 138.991 30.087C140.68 30.087 142.047 31.4515 142.047 33.1384C142.047 33.5946 141.946 34.0257 141.77 34.4108C141.795 34.235 141.808 34.055 141.808 33.8709Z" fill="white"/>
<path fill-rule="evenodd" clip-rule="evenodd" d="M141.615 39.2453C142.365 39.2453 142.977 38.6342 142.977 37.885C142.977 37.8222 142.973 37.7636 142.965 37.7008C143.027 37.8431 143.061 38.0022 143.061 38.1696C143.061 38.8142 142.537 39.3374 141.891 39.3374C141.715 39.3374 141.552 39.2998 141.405 39.2328C141.476 39.2412 141.548 39.2453 141.615 39.2453Z" fill="white"/>
<path fill-rule="evenodd" clip-rule="evenodd" d="M112.634 3.28579C111.75 1.54872 109.624 0.853889 107.881 1.73289C107.738 1.80405 107.6 1.88776 107.47 1.97566C107.73 1.66173 108.052 1.39385 108.438 1.2013C109.931 0.447873 111.754 1.04225 112.513 2.53236C112.718 2.93419 112.823 3.36114 112.84 3.78389C112.785 3.61228 112.718 3.44904 112.634 3.28579Z" fill="white"/>
<path fill-rule="evenodd" clip-rule="evenodd" d="M104.887 2.88814C104.569 1.59056 103.257 0.795276 101.957 1.11339C101.848 1.1385 101.747 1.17199 101.647 1.21385C101.869 1.04642 102.125 0.916662 102.414 0.845504C103.529 0.573433 104.652 1.25571 104.925 2.36492C105 2.66629 105.005 2.96348 104.946 3.24811C104.938 3.13091 104.917 3.00952 104.887 2.88814Z" fill="white"/>
<path fill-rule="evenodd" clip-rule="evenodd" d="M42.0388 1.11341C40.7392 0.795294 39.4313 1.59058 39.1127 2.88816C39.0833 3.00954 39.0624 3.13093 39.054 3.25231C38.9995 2.96768 39.0037 2.66631 39.075 2.36913C39.3474 1.25572 40.4709 0.577637 41.5861 0.849709C41.8753 0.920866 42.131 1.04644 42.3532 1.21805C42.2526 1.17201 42.1478 1.14271 42.0388 1.11341Z" fill="white"/>
<path fill-rule="evenodd" clip-rule="evenodd" d="M36.1153 1.73289C34.3755 0.849703 32.2459 1.54453 31.3656 3.28579C31.2817 3.44904 31.2147 3.61647 31.1602 3.78389C31.1769 3.36114 31.2817 2.93419 31.4871 2.53236C32.2459 1.04225 34.0695 0.447873 35.5619 1.2013C35.9476 1.39803 36.2746 1.66173 36.5303 1.97566C36.3961 1.88776 36.2578 1.80405 36.1153 1.73289Z" fill="white"/>
<path fill-rule="evenodd" clip-rule="evenodd" d="M5.75588 30.3088C3.78558 30.3088 2.18837 31.9036 2.18837 33.8709C2.18837 34.055 2.20095 34.235 2.23029 34.4108C2.05003 34.0216 1.95361 33.5904 1.95361 33.1384C1.95361 31.4515 3.32025 30.087 5.00968 30.087C5.44567 30.087 5.86069 30.1791 6.23798 30.3423C6.07868 30.3214 5.91938 30.3088 5.75588 30.3088Z" fill="white"/>
<path fill-rule="evenodd" clip-rule="evenodd" d="M1.0187 37.885C1.0187 38.6342 1.63075 39.2453 2.38114 39.2453C2.45241 39.2453 2.51948 39.2411 2.58656 39.2286C2.43983 39.2955 2.27215 39.3332 2.10027 39.3332C1.45468 39.3332 0.930664 38.81 0.930664 38.1654C0.930664 37.998 0.964201 37.8389 1.02708 37.6966C1.02289 37.7636 1.0187 37.8222 1.0187 37.885Z" fill="white"/>
</g>
<defs>
<linearGradient id="paint0_linear_4_798" x1="56.3636" y1="36.3229" x2="95.0027" y2="9.88787" gradientUnits="userSpaceOnUse">
<stop stop-color="#E3B552"/>
<stop offset="1" stop-color="#EECA7E"/>
</linearGradient>
<clipPath id="clip0_4_798">
<rect width="144" height="54" fill="white"/>
</clipPath>
</defs>
</svg>
