<svg width="525" height="342" viewBox="0 0 525 342" fill="none" xmlns="http://www.w3.org/2000/svg">
<g filter="url(#filter0_d_2_3425)">
<path d="M437.084 271.2H87.7903C81.6082 271.2 76.7507 266.343 76.7507 260.161V49.5248C76.7507 43.3427 81.6082 38.4852 87.7903 38.4852H436.863C443.045 38.4852 447.902 43.3427 447.902 49.5248V260.161C448.123 266.343 443.045 271.2 437.084 271.2Z" fill="#EBEBEB"/>
<path d="M433.992 51.9536H90.6603V257.953H433.992V51.9536Z" fill="#C2E1FE"/>
<path d="M231.968 60.3437H98.83V93.4625H231.968V60.3437Z" fill="#DCEFFF"/>
<path d="M231.968 99.8655H98.83V114.659H231.968V99.8655Z" fill="#DCEFFF"/>
<path d="M421.186 60.3437H243.228V114.879H421.186V60.3437Z" fill="#DCEFFF"/>
<path d="M231.968 121.724H98.83V136.517H231.968V121.724Z" fill="#DCEFFF"/>
<path d="M421.186 121.724H243.228V136.517H421.186V121.724Z" fill="#DCEFFF"/>
<path d="M231.968 143.803H98.83V158.596H231.968V143.803Z" fill="#DCEFFF"/>
<path d="M421.186 143.803H243.228V158.596H421.186V143.803Z" fill="#DCEFFF"/>
<path d="M231.968 165.662H98.83V180.455H231.968V165.662Z" fill="#DCEFFF"/>
<path d="M421.186 165.662H243.228V180.455H421.186V165.662Z" fill="#DCEFFF"/>
<path d="M231.968 187.52H98.83V202.313H231.968V187.52Z" fill="#DCEFFF"/>
<path opacity="0.5" d="M421.186 187.52H243.228V202.313H421.186V187.52Z" fill="#DCEFFF"/>
<path d="M421.407 214.457H98.83V221.964H421.407V214.457Z" fill="#DCEFFF"/>
<path opacity="0.5" d="M421.407 228.367H98.83V243.38H421.407V228.367Z" fill="#DCEFFF"/>
<path d="M82.4911 291.734H442.162C453.422 291.734 462.695 282.681 462.695 271.2H62.1782C62.1782 282.681 71.2307 291.734 82.4911 291.734Z" fill="#DFDFDF"/>
<path d="M291.582 281.578H233.072C227.552 281.578 222.915 276.941 222.915 271.421H301.738C301.959 276.941 297.322 281.578 291.582 281.578Z" fill="#DFDFDF"/>
<path opacity="0.2" d="M82.4911 291.734H442.162C447.902 291.734 453.201 289.305 456.955 285.552H67.9188C71.6723 289.305 76.7505 291.734 82.4911 291.734Z" fill="#DFDFDF"/>
<path d="M468.215 226.159L44.5149 140.27L56.6585 80.6566L480.359 166.545L468.215 226.159Z" fill="url(#paint0_linear_2_3425)"/>
<path d="M82.4912 147.998L44.5149 140.27L77.6337 85.0724L115.389 92.5793L82.4912 147.998Z" fill="#0C0C0C"/>
<path d="M155.353 162.791L117.376 155.064L150.495 99.8655L188.471 107.372L155.353 162.791Z" fill="#0C0C0C"/>
<path d="M228.214 177.584L190.459 169.857L223.578 114.438L261.333 122.166L228.214 177.584Z" fill="#0C0C0C"/>
<path d="M301.296 192.377L263.32 184.65L296.439 129.231L334.415 136.959L301.296 192.377Z" fill="#0C0C0C"/>
<path d="M374.158 206.95L336.402 199.443L369.521 144.024L407.276 151.752L374.158 206.95Z" fill="#0C0C0C"/>
<path d="M447.24 221.743L409.264 214.236L442.382 158.817L480.359 166.545L447.24 221.743Z" fill="#0C0C0C"/>
<path d="M479.917 136.296L57.9831 229.912L44.7356 170.519L466.89 76.9031L479.917 136.296Z" fill="url(#paint1_linear_2_3425)"/>
<path d="M95.7386 221.522L57.9832 229.912L65.7109 165.882L103.466 157.492L95.7386 221.522Z" fill="#0C0C0C"/>
<path d="M168.379 205.404L130.624 213.794L138.352 149.765L176.107 141.374L168.379 205.404Z" fill="#0C0C0C"/>
<path d="M241.02 189.286L203.264 197.676L210.992 133.647L248.747 125.257L241.02 189.286Z" fill="#0C0C0C"/>
<path d="M313.661 173.169L275.905 181.559L283.854 117.529L321.388 109.139L313.661 173.169Z" fill="#0C0C0C"/>
<path d="M386.301 157.051L348.767 165.441L356.494 101.411L394.25 93.0209L386.301 157.051Z" fill="#0C0C0C"/>
<path d="M459.163 140.933L421.407 149.323L429.135 85.2932L466.89 76.9031L459.163 140.933Z" fill="#0C0C0C"/>
</g>
<defs>
<filter id="filter0_d_2_3425" x="0.514893" y="0.485229" width="523.844" height="341.249" filterUnits="userSpaceOnUse" color-interpolation-filters="sRGB">
<feFlood flood-opacity="0" result="BackgroundImageFix"/>
<feColorMatrix in="SourceAlpha" type="matrix" values="0 0 0 0 0 0 0 0 0 0 0 0 0 0 0 0 0 0 127 0" result="hardAlpha"/>
<feOffset dy="6"/>
<feGaussianBlur stdDeviation="22"/>
<feComposite in2="hardAlpha" operator="out"/>
<feColorMatrix type="matrix" values="0 0 0 0 0 0 0 0 0 0 0 0 0 0 0 0 0 0 0.25 0"/>
<feBlend mode="normal" in2="BackgroundImageFix" result="effect1_dropShadow_2_3425"/>
<feBlend mode="normal" in="SourceGraphic" in2="effect1_dropShadow_2_3425" result="shape"/>
</filter>
<linearGradient id="paint0_linear_2_3425" x1="50.5449" y1="110.541" x2="474.275" y2="196.272" gradientUnits="userSpaceOnUse">
<stop stop-color="#FDDA42"/>
<stop offset="1" stop-color="#E5A003"/>
</linearGradient>
<linearGradient id="paint1_linear_2_3425" x1="529.579" y1="84.3703" x2="46.2719" y2="209.256" gradientUnits="userSpaceOnUse">
<stop stop-color="#FDDA42"/>
<stop offset="1" stop-color="#E5A003"/>
</linearGradient>
</defs>
</svg>
